<svg xmlns="http://www.w3.org/2000/svg" width="1924" height="638" viewBox="0 0 962 319">
  <defs>
    <style>
      .cls-1 {
        fill: #f1f1f1;
        fill-rule: evenodd;
        opacity: 0.8;
        mix-blend-mode: multiply;
      }
    </style>
  </defs>
  <path id="シェイプ_2" data-name="シェイプ 2" class="cls-1" d="M45.018,1299.29l12.014-45.78,12.014,45.78H45.018m23.939-80.53H45.194L5,1347.18H32.473l6.89-26.28H74.787l6.89,26.28h27.739L68.957,1218.76M206.675,1217q-22.26,0-33.877,14.33t-11.617,40.88v23.11q0.352,26.19,12.633,39.91t34.452,13.71a67.268,67.268,0,0,0,23.9-4.1,47.332,47.332,0,0,0,18.418-12.21v-53.01H206.322v19.58h18.2v23.55l-2.3,1.59q-4.77,3.09-12.456,3.08-12.013,0-17.27-7.98t-5.256-25.53v-23.29q0.175-16.755,4.947-24.43t15.283-7.67q8.655,0,12.72,4.45t5.124,16.72h25.264q-1.678-22.05-12.323-32.37T206.675,1217m88.338,61.65v-38.28h15.194q15.107,0,15.106,19.32,0,8.64-3.886,13.8t-11.662,5.16H295.013m15.459-59.89h-41.43v128.42h25.971v-46.92h12.9l19.346,46.92h27.915v-1.23l-22.527-52.57q18.638-10.23,18.64-35.81,0-18.615-10.645-28.71t-30.168-10.1m103,108.57q-10.514,0-15.548-7.98t-5.035-24.83v-22.84q0.175-16.665,5.124-24.83t15.282-8.16q10.422,0,15.371,8.47t4.947,25.84v22.32q-0.089,16.41-5.035,24.21t-15.106,7.8M413.3,1217q-21.821,0-34.1,14.86t-12.279,41.32v21.96q0.175,25.5,12.544,39.65t34.01,14.15q21.731,0,33.966-14.28t12.234-40.14v-21.96q-0.177-26.37-12.543-40.97T413.3,1217m148.673,1.76H536v88.82q-0.09,10.575-3.534,15.21t-12.721,4.63q-9.274,0-12.809-4.67t-3.533-15.61v-88.38H477.254v88.29q0,20.37,10.91,31.13t31.58,10.76q20.317,0,31.184-10.62t11.042-30.65v-88.91m109.628,0H645.714v84.32l-38.074-84.32H581.669v128.42H607.64v-84.23l37.986,84.23H671.6V1218.76m46.818,106.9v-85.29h9.453q12.1,0.36,17.138,7.45,5.034,7.11,5.034,25.1v22.31q-0.264,16.755-5.565,23.59t-18.286,6.84h-7.774m8.04-106.9H692.445v128.42h33.3q23.5,0,36.881-14.42t13.384-39.73v-20.82q-0.266-24.87-13.648-39.16t-35.909-14.29m141.87,0H794.653v128.42H868.5v-21.52h-47.88v-34.05h40.459v-20.9H820.623v-30.34h47.7v-21.61m41.077,106.9v-85.29h9.453q12.1,0.36,17.137,7.45,5.035,7.11,5.035,25.1v22.31q-0.264,16.755-5.565,23.59t-18.286,6.84H909.4m8.039-106.9h-34.01v128.42h33.3q23.5,0,36.881-14.42T967,1293.03v-20.82q-0.265-24.87-13.649-39.16t-35.909-14.29M39.364,1512.71v-34.3H57.65q12.542,0.435,12.544,17.72,0,7.95-3.622,12.26t-10.6,4.32H39.364m0-53.18v-32.1H53.145q7.95,0,11.484,3.79t3.534,12.52q0,15.795-15.282,15.79H39.364m13.781-53.71H13.392v128.42H55.971q19.522,0,29.814-9.53t10.291-28.22q0-10.935-4.682-18.39a22.511,22.511,0,0,0-13.339-9.93,25.512,25.512,0,0,0,11.837-10.31,31.619,31.619,0,0,0,4.329-16.85q0-17.28-10.468-26.24t-30.609-8.95m145.4,0H172.577v88.81q-0.09,10.59-3.534,15.22t-12.72,4.63q-9.276,0-12.81-4.68-3.534-4.665-3.533-15.61v-88.37H113.832v88.28q0,20.385,10.91,31.14T156.323,1536q20.316,0,31.183-10.63t11.042-30.65v-88.9m59.893-1.77q-17.755,0-29.283,9.84-11.529,9.825-11.529,26.06a34.423,34.423,0,0,0,8.481,23.24q8.479,9.84,27.826,17.16,10.6,4.32,14.62,8.33t4.019,11.86q0,14.385-13.6,14.38-9.805,0-14.134-5.03t-4.328-16.14h-26.06q0,12.975,5.786,22.49a38.4,38.4,0,0,0,16.033,14.64,50.122,50.122,0,0,0,22.7,5.12q18.374,0,29.064-9.44t10.688-26.19q0-15.255-8.524-25.14-8.526-9.87-27.341-16.67-10.778-4.59-15.017-8.86a13.305,13.305,0,0,1-4.24-9.57q0-6.8,3.8-10.81t10.6-4.01q7.242,0,11.086,4.72c2.562,3.14,3.842,7.72,3.842,13.71h25.884a42.176,42.176,0,0,0-4.992-20.64,34.6,34.6,0,0,0-14.266-14.06,43.929,43.929,0,0,0-21.113-4.99m84.628,1.77H317.1v128.42h25.971V1405.82m111.747,0H428.933v84.32l-38.074-84.32H364.888v128.42h25.971v-84.23l37.986,84.23h25.971V1405.82m94.521,0H475.663v128.42h73.85v-21.53H501.635v-34.04h40.459v-20.9H501.635v-30.34h47.7v-21.61m55.3-1.77q-17.755,0-29.284,9.84-11.529,9.825-11.528,26.06a34.422,34.422,0,0,0,8.48,23.24q8.481,9.84,27.827,17.16,10.6,4.32,14.619,8.33t4.02,11.86q0,14.385-13.6,14.38-9.806,0-14.134-5.03t-4.329-16.14H560.645q0,12.975,5.786,22.49a38.386,38.386,0,0,0,16.033,14.64,50.119,50.119,0,0,0,22.7,5.12q18.374,0,29.063-9.44t10.689-26.19q0-15.255-8.525-25.14-8.526-9.87-27.341-16.67-10.777-4.59-15.017-8.86a13.305,13.305,0,0,1-4.24-9.57q0-6.8,3.8-10.81t10.6-4.01q7.242,0,11.087,4.72c2.561,3.14,3.842,7.72,3.842,13.71h25.883a42.175,42.175,0,0,0-4.991-20.64,34.606,34.606,0,0,0-14.267-14.06,43.928,43.928,0,0,0-21.112-4.99m97.7,0q-17.757,0-29.284,9.84-11.527,9.825-11.528,26.06a34.427,34.427,0,0,0,8.48,23.24q8.481,9.84,27.827,17.16,10.6,4.32,14.62,8.33t4.018,11.86q0,14.385-13.6,14.38-9.806,0-14.134-5.03t-4.329-16.14h-26.06q0,12.975,5.786,22.49a38.4,38.4,0,0,0,16.034,14.64,50.119,50.119,0,0,0,22.7,5.12q18.372,0,29.063-9.44t10.689-26.19q0-15.255-8.525-25.14-8.526-9.87-27.34-16.67-10.779-4.59-15.018-8.86a13.305,13.305,0,0,1-4.24-9.57q0-6.8,3.8-10.81t10.6-4.01q7.243,0,11.086,4.72c2.563,3.14,3.843,7.72,3.843,13.71h25.883a42.186,42.186,0,0,0-4.991-20.64,34.61,34.61,0,0,0-14.266-14.06,43.935,43.935,0,0,0-21.113-4.99" transform="translate(-5 -1217)"/>
</svg>
